<svg xmlns="http://www.w3.org/2000/svg" viewBox="0 0 600 600">
	<g>
		<path d="M123,43.44a44.49,44.49,0,0,1,16.18,2.79A34.56,34.56,0,0,1,147.64,51L129.32,76.51A26.81,26.81,0,0,0,125,74.58a38.07,38.07,0,0,0-12.42-1.89c-10.45,0-18.74,3.52-24.65,10.47-5.67,6.66-8.54,15.77-8.54,27.09V196H45.41V45.78H79.35V83.94L90.53,64.81a48.56,48.56,0,0,1,12.56-14.53A32.11,32.11,0,0,1,123,43.44m0-6a38.26,38.26,0,0,0-23.51,8,54.41,54.41,0,0,0-14.14,16.3v-22H39.41V202H85.35V110.25q0-14.85,7.11-23.2t20.08-8.36A32.1,32.1,0,0,1,123,80.25a19.65,19.65,0,0,1,7.66,4.69l25-34.85a40.23,40.23,0,0,0-14.3-9.45A50.2,50.2,0,0,0,123,37.44Z" />
		<polygon points="354.25 39.78 325.5 139.94 291.29 39.78 265.97 39.78 231.75 139.94 203 39.78 161.91 39.78 211.91 201.97 243.79 201.97 278.63 96.19 313.47 201.97 345.35 201.97 395.35 39.78 354.25 39.78" />
		<polygon points="560.04 201.97 508.08 122.95 557.54 39.78 510.35 39.78 485.66 87.1 457.54 39.78 410.35 39.78 461.74 117.83 407.85 201.97 453.32 201.97 483.75 152.94 513 201.97 560.04 201.97" />
		<path d="M141.36,220.64a50.2,50.2,0,0,0-18.36-3.2,38.26,38.26,0,0,0-23.51,8,54.41,54.41,0,0,0-14.14,16.3v-22H39.41V382H85.35V290.25q0-14.85,7.11-23.2t20.08-8.36A32.1,32.1,0,0,1,123,260.25a19.65,19.65,0,0,1,7.66,4.69l25-34.85A40.23,40.23,0,0,0,141.36,220.64Z" />
		<path d="M387.22,225.78,340.92,376H317.81L284.33,274.31l-5.7-17.3-5.7,17.3L239.45,376H216.34L170,225.78h28.44L226,321.59,231.26,340l6.17-18.07,32.83-96.1H287l32.83,96.1L326,340l5.27-18.36,27.5-95.81h28.45m8.13-6h-41.1L325.5,319.94,291.29,219.78H266L231.75,319.94,203,219.78H161.91l50,162.19h31.88l34.84-105.78L313.47,382h31.88l50-162.19Z" />
		<polygon points="560.04 381.97 508.08 302.95 557.54 219.78 510.35 219.78 485.66 267.1 457.54 219.78 410.35 219.78 461.74 297.83 407.85 381.97 453.32 381.97 483.75 332.94 513 381.97 560.04 381.97" />
		<path d="M141.36,400.64a50.2,50.2,0,0,0-18.36-3.2,38.26,38.26,0,0,0-23.51,8,54.41,54.41,0,0,0-14.14,16.3v-22H39.41V562H85.35V470.25q0-14.85,7.11-23.2t20.08-8.36A32.1,32.1,0,0,1,123,440.25a19.65,19.65,0,0,1,7.66,4.69l25-34.85A40.23,40.23,0,0,0,141.36,400.64Z" />
		<polygon points="354.25 399.78 325.5 499.94 291.29 399.78 265.97 399.78 231.75 499.94 203 399.78 161.91 399.78 211.91 561.97 243.79 561.97 278.63 456.19 313.47 561.97 345.35 561.97 395.35 399.78 354.25 399.78" />
		<path d="M547,405.78l-44.07,74.1L501,483.11l2.07,3.14L548.91,556h-32.5l-27.51-46.1-5-8.47-5.2,8.38L450,556H418.82l48-74.91,2.1-3.28-2.14-3.25-45.27-68.75h32.64l26.38,44.39,5.5,9.25,5-9.54,23-44.1h33m10.55-6H510.35L485.66,447.1l-28.12-47.32H410.35l51.39,78.05L407.85,562h45.47l30.43-49L513,562h47l-52-79,49.46-83.17Z" />
	</g>
</svg>
