<svg xmlns="http://www.w3.org/2000/svg" viewBox="0 0 1280 500">
	<defs>
		<linearGradient id="grad" x1="0" x2="0" y1="0" y2="1">
			<stop offset="0%" stop-color="#112233">
				<animate attributeName="stop-color" dur="11s" repeatCount="indefinite" calcMode="spline"
					values="#112233;#446688;#112233" keyTimes="0;0.5;1" keySplines="0.5 0 0.5 1;0.5 0 0.5 1" />
			</stop>
			<stop offset="100%" stop-color="#112233">
				<animate attributeName="stop-color" dur="17s" repeatCount="indefinite" calcMode="spline"
					values="#112233;#446688;#112233" keyTimes="0;0.5;1" keySplines="0.5 0 0.5 1;0.5 0 0.5 1" />
			</stop>
		</linearGradient>
	</defs>
	<mask id="read-write-execute" fill="white">
		<path d="M13.9,57.55H42.61V158.92H13.9ZM66.14,82.84a20.08,20.08,0,0,0-6.54-1q-8.12,0-12.55,5.23t-4.44,14.5l-2-26.37A36.17,36.17,0,0,1,51.44,61.11a23.94,23.94,0,0,1,14.7-5,31.46,31.46,0,0,1,11.48,2A25.26,25.26,0,0,1,86.55,64L70.93,85.77A12.42,12.42,0,0,0,66.14,82.84Z" />
		<path d="M115.7,155.06a36.46,36.46,0,0,1-15.87-15.53q-5.46-10.2-5.47-24.56V103.54q0-15,5.23-25.68a36.41,36.41,0,0,1,15.23-16.21q10-5.57,24.17-5.57,13.29,0,22.76,6.64T176.15,82q4.93,12.64,4.93,30.52v6.64H111.75V101.1h44.92l-.29-2.34Q155.3,90,150.86,85.18T139,80.4q-9.66,0-15,5.76t-5.32,16.31v12.89q0,10.35,5.81,16T140.75,137a31.17,31.17,0,0,0,10.65-1.9,32.58,32.58,0,0,0,9.57-5.42l17.48,15.52a58.23,58.23,0,0,1-17.78,11.18,53,53,0,0,1-19.92,4Q126.11,160.38,115.7,155.06Z" />
		<path d="M207.69,152.62q-8.06-7.77-8.05-23.59,0-15,9-22.56T235.77,99h25.39l1.37,20.41H235.87q-6.06,0-9.08,2.4c-2,1.59-3,4-3,7.27a8.11,8.11,0,0,0,3.81,7.38q3.81,2.39,11.52,2.39,10.74,0,16-2.44t5.22-7.62l2.05,14.75a13.8,13.8,0,0,1-5,9.27,29,29,0,0,1-11.13,5.72,51.27,51.27,0,0,1-14.11,1.9Q215.76,160.38,207.69,152.62Zm52.59-58q0-7-4.69-10.84T242.31,80a35.52,35.52,0,0,0-11.23,1.85A33.2,33.2,0,0,0,221.22,87l-16.6-16.31a39.87,39.87,0,0,1,16-10.79,60.69,60.69,0,0,1,22.07-3.86q13.29,0,22.66,4.45a31.92,31.92,0,0,1,14.31,12.89q4.92,8.44,4.93,20.36v65.14H260.28Z" />
		<path d="M323.71,155.2a32.09,32.09,0,0,1-11.67-15q-4-9.81-4-23.68V100.32q0-14,4-23.92t11.67-15.14q7.67-5.17,18.41-5.18a24.64,24.64,0,0,1,14.79,4.84A34,34,0,0,1,367.7,74.64L365.65,97.1a20,20,0,0,0-1.75-8.79,12.48,12.48,0,0,0-5.13-5.52,16.36,16.36,0,0,0-8.16-1.9q-7.51,0-11.67,5.12t-4.15,14.41v16.11q0,9.09,4.15,14.06t11.67,5a16.68,16.68,0,0,0,8.16-1.86,12.33,12.33,0,0,0,5.13-5.37,18.89,18.89,0,0,0,1.75-8.5L367,143a26.7,26.7,0,0,1-9.57,12.84,25.92,25.92,0,0,1-15.33,4.54Q331.38,160.38,323.71,155.2ZM365.65,16.92h26.76v142H365.65Z" />
		<path d="M414.38,132.16h26.76v35L414.38,192.7Z" />
		<path d="M5.11,217.55H30.79l18,62.6,21.39-62.6H86l21.38,62.6,18-62.6H151L119.75,318.92H99.83L78.06,252.8,56.28,318.92H36.36Z" />
		<path d="M168.58,217.55h28.71V318.92H168.58Zm52.25,25.29a20.08,20.08,0,0,0-6.54-1q-8.11,0-12.55,5.23t-4.45,14.5l-2-26.37a36.28,36.28,0,0,1,10.89-14.11,23.94,23.94,0,0,1,14.7-5,31.37,31.37,0,0,1,11.47,2,25.21,25.21,0,0,1,8.94,5.91l-15.63,21.78A12.3,12.3,0,0,0,220.83,242.84Z" />
		<path d="M252.47,176.92h26.76v26.76H252.47Zm0,40.63h26.76V318.92H252.47Z" />
		<path d="M296.32,217.55h49.61V240.4H296.32ZM313,312.62q-6.21-6.8-6.2-20.07V188.06h26.75v97.85a9.52,9.52,0,0,0,1.47,5.71,5,5,0,0,0,4.3,2h6.64V319.4H332.45Q319.18,319.4,313,312.62Z" />
		<path d="M387.77,315.06a36.46,36.46,0,0,1-15.87-15.53q-5.46-10.2-5.47-24.56V263.54q0-15,5.23-25.68a36.41,36.41,0,0,1,15.23-16.21q10-5.57,24.17-5.57,13.29,0,22.76,6.64T448.22,242q4.93,12.65,4.93,30.52v6.64H383.82V261.1h44.92l-.29-2.34q-1.08-8.79-5.52-13.58t-11.87-4.78q-9.66,0-15,5.76t-5.32,16.31v12.89q0,10.35,5.81,16T412.82,297a31.17,31.17,0,0,0,10.65-1.9,32.58,32.58,0,0,0,9.57-5.42l17.48,15.52a58.23,58.23,0,0,1-17.78,11.18,53,53,0,0,1-19.92,4Q398.18,320.38,387.77,315.06Z" />
		<path d="M468.29,292.16h26.76v35L468.29,352.7Z" />
		<path d="M32.3,475.06a36.46,36.46,0,0,1-15.87-15.53Q11,449.33,11,435V423.54q0-15,5.22-25.68a36.36,36.36,0,0,1,15.23-16.21q10-5.56,24.17-5.57,13.29,0,22.76,6.64T92.75,402q4.94,12.64,4.93,30.52v6.64H28.35V421.1H73.27L73,418.76Q71.9,410,67.46,405.18T55.59,400.4q-9.66,0-15,5.76t-5.32,16.31v12.89q0,10.35,5.81,16T57.35,457A31.17,31.17,0,0,0,68,455.14a32.58,32.58,0,0,0,9.57-5.42l17.48,15.52a58.23,58.23,0,0,1-17.78,11.18,53,53,0,0,1-19.92,4Q42.71,480.38,32.3,475.06Z" />
		<path d="M144.27,423l15.91,18.36-23.34,37.6H108.43ZM149.15,437,110,377.55h29.49l24.32,40.92,39.74,60.45H174.15Zm4.59-23.53,18.75-35.94H202l-32.52,54.69Z" />
		<path d="M237.09,475.06a36.46,36.46,0,0,1-15.87-15.53q-5.47-10.2-5.47-24.56V423.54q0-15,5.23-25.68a36.36,36.36,0,0,1,15.23-16.21q10-5.56,24.17-5.57,13.28,0,22.75,6.64T297.54,402q4.93,12.64,4.93,30.52v6.64H233.13V421.1h44.93l-.3-2.34q-1.06-8.79-5.51-13.58t-11.87-4.78q-9.67,0-15,5.76t-5.32,16.31v12.89q0,10.35,5.81,16T262.14,457a31.08,31.08,0,0,0,10.64-1.9,32.33,32.33,0,0,0,9.57-5.42l17.48,15.52a58.19,58.19,0,0,1-17.77,11.18,53.1,53.1,0,0,1-19.92,4Q247.49,480.38,237.09,475.06Z" />
		<path d="M344,474.86a36.63,36.63,0,0,1-15.67-16.06Q323,448.26,323,433.41V422.57q0-14.74,5.37-25.15A36.56,36.56,0,0,1,344,381.55q10.31-5.46,24.76-5.47A62.41,62.41,0,0,1,384.45,378a47.94,47.94,0,0,1,13.23,5.51,35.21,35.21,0,0,1,9.77,8.79l-17.28,16.8a26.91,26.91,0,0,0-8.7-5.32A29,29,0,0,0,371,401.86q-10.15,0-15.72,5.42t-5.56,15.29v10.84q0,10.15,5.56,15.67T371,454.6a27.36,27.36,0,0,0,10.55-2.05,24.68,24.68,0,0,0,8.6-5.86l17.28,17.77a36.6,36.6,0,0,1-9.86,8.64,47.44,47.44,0,0,1-13.19,5.42,63.26,63.26,0,0,1-15.62,1.86Q354.32,480.38,344,474.86Z" />
		<path d="M449.83,439.17q0,7.32,4.15,11.38t11.67,4.05c5,0,8.87-1.38,11.58-4.15s4-6.72,4-11.87l1.37,22.17a31.47,31.47,0,0,1-9.43,14,23.82,23.82,0,0,1-16.06,5.66q-16.32,0-25.2-10.5t-8.88-29.73v-62.6h26.75Zm31.45-61.62h26.66V478.92H481.28Z" />
		<path d="M526.49,377.55H576.1V400.4H526.49Zm16.65,95.07q-6.2-6.8-6.2-20.07V348.06H563.7v97.85a9.52,9.52,0,0,0,1.47,5.71,5,5,0,0,0,4.29,2h6.64V479.4H562.63Q549.34,479.4,543.14,472.62Z" />
		<path d="M618,475.06a36.36,36.36,0,0,1-15.87-15.53q-5.48-10.2-5.47-24.56V423.54q0-15,5.22-25.68a36.44,36.44,0,0,1,15.24-16.21q10-5.56,24.17-5.57,13.28,0,22.75,6.64T678.4,402q4.92,12.64,4.93,30.52v6.64H614V421.1h44.93l-.3-2.34q-1.07-8.79-5.52-13.58t-11.86-4.78q-9.68,0-15,5.76t-5.32,16.31v12.89q0,10.35,5.81,16T643,457a31.08,31.08,0,0,0,10.64-1.9,32.33,32.33,0,0,0,9.57-5.42l17.48,15.52a58.19,58.19,0,0,1-17.77,11.18,53.1,53.1,0,0,1-19.92,4Q628.35,480.38,618,475.06Z" />
		<path d="M698.47,452.16h26.75v26.76H698.47Z" />
	</mask>
	<rect x="0" y="0" width="1280" height="500" fill="url(#grad)" mask="url(#read-write-execute)" />
</svg>